<?xml version="1.0" encoding="utf-8" ?><svg xmlns="http://www.w3.org/2000/svg" xmlns:xlink="http://www.w3.org/1999/xlink" width="512" height="512" viewBox="0 0 512 512"><path fill="#1987C7" transform="scale(0.5 0.5)" d="M452.273 305.485C473.602 305.001 495.357 305.284 516.724 305.205C539.904 305.12 564.374 303.383 586.942 308.909C637.297 321.239 675.802 368.85 676.705 420.78C676.99 450.808 665.494 479.75 644.682 501.398C642.698 503.446 636.384 509.623 634.064 510.931C631.814 510.608 629 514.737 625.81 516.287L625.171 515.44C625.456 513.597 626.806 512.541 628.13 510.702C628.63 506.936 627.68 501.457 627.846 497.22C628.336 484.711 630.214 478.009 625.102 466.263C622.793 458.945 618.823 455.017 613.379 449.935C608.883 445.739 602.622 443.139 599.531 437.678L598.254 438.291C603.389 421.81 601.78 406.701 589.768 393.605C583.725 387.232 573.481 381.343 564.511 381.039C534.719 380.031 504.505 381.289 474.72 380.567C467.081 381.095 456.522 380.764 448.701 380.757L410.048 380.816C390.341 380.712 367.555 381.447 348.11 380.532C346.805 369.91 347.916 349.663 347.575 338.181C347.402 332.367 347.353 309.982 348.028 305.534C352.767 305.225 358.668 305.286 363.444 305.406C392.753 306.138 423.101 304.224 452.273 305.485Z"/><path fill="#122D52" transform="scale(0.5 0.5)" d="M348.028 305.534C352.767 305.225 358.668 305.286 363.444 305.406C392.753 306.138 423.101 304.224 452.273 305.485C446.32 306.932 432.567 305.992 425.716 306.336C429.032 307.084 430.083 310.715 430.3 313.865C430.636 318.741 434.19 322.361 435.64 326.874C437.381 334.955 436.989 343.995 437.501 352.208C437.892 358.486 439.571 366.023 439.386 372.434C439.322 374.664 437.456 377.928 436.096 379.755C447.164 379.742 464.049 379.331 474.72 380.567C467.081 381.095 456.522 380.764 448.701 380.757L410.048 380.816C390.341 380.712 367.555 381.447 348.11 380.532C346.805 369.91 347.916 349.663 347.575 338.181C347.402 332.367 347.353 309.982 348.028 305.534Z"/><defs><linearGradient id="gradient_0" gradientUnits="userSpaceOnUse" x1="337.30203" y1="483.2966" x2="416.75745" y2="534.85889"><stop offset="0" stop-color="#0E192C"/><stop offset="1" stop-color="#184780"/></linearGradient></defs><path fill="url(#gradient_0)" transform="scale(0.5 0.5)" d="M348.107 465.059C351.415 460.7 357.46 454.731 361.41 450.622L384.029 427.141L407.848 402.301C411.856 398.143 417.649 391.765 422.001 388.352C422.363 418.18 422.055 448.32 422.075 478.177C422.088 486.89 422.152 495.603 422.268 504.315C422.316 508.719 422.53 516.68 422.046 520.891C422.324 547.581 422.436 574.272 422.382 600.963C422.39 608.805 422.877 633.187 421.875 639.862C415.716 640.768 406.417 640.479 399.961 640.47L365.098 640.402C360.664 640.39 353.76 640.127 349.518 640.315L348.296 639.498C346.986 636.732 347.544 605.044 347.55 600.311L347.582 536.028L347.596 493.804C347.601 484.549 347.352 474.182 348.107 465.059Z"/><path fill="#1987C7" transform="scale(0.5 0.5)" d="M422.046 520.891C422.324 547.581 422.436 574.272 422.382 600.963C422.39 608.805 422.877 633.187 421.875 639.862C415.716 640.768 406.417 640.479 399.961 640.47L365.098 640.402C360.664 640.39 353.76 640.127 349.518 640.315C363.388 620.073 375.467 597.279 388.447 576.821C393.499 568.86 417.919 523.406 422.046 520.891Z"/><defs><linearGradient id="gradient_1" gradientUnits="userSpaceOnUse" x1="430.69183" y1="476.24002" x2="629.20538" y2="495.70953"><stop offset="0" stop-color="#1A2A59"/><stop offset="1" stop-color="#1B6BCA"/></linearGradient></defs><path fill="url(#gradient_1)" transform="scale(0.5 0.5)" d="M598.254 438.291L599.531 437.678C602.622 443.139 608.883 445.739 613.379 449.935C618.823 455.017 622.793 458.945 625.102 466.263C630.214 478.009 628.336 484.711 627.846 497.22C627.68 501.457 628.63 506.936 628.13 510.702C626.806 512.541 625.456 513.597 625.171 515.44L625.81 516.287C629 514.737 631.814 510.608 634.064 510.931C624.433 522.358 598.584 531.973 584.542 536.205C565.282 541.009 540.576 539.045 520.624 539.423C514.127 539.546 495.357 539.731 489.414 538.81C474.099 522.132 459.326 503.388 444.565 486.194C438.934 479.636 432.83 471.779 426.912 465.642C454.566 465.423 482.221 465.35 509.876 465.422C516.539 465.426 523.384 465.464 530.044 465.431C561.786 465.275 580.952 469.84 598.254 438.291Z"/><path fill="#122D52" transform="scale(0.5 0.5)" d="M584.542 536.205C593.371 544.012 604.02 558.162 612.365 567.053C613.683 568.457 622.092 578.245 622.7 579.263C628.077 585.353 673.682 637.12 674.039 639.243C672.204 640.873 667.247 640.553 664.739 640.46C637.386 639.447 608.166 641.737 580.978 640.269C579.377 640.17 577.778 640.035 576.182 639.865C572.184 636.226 567.315 630.612 564.197 626.156C562.093 624.808 547.708 607.025 545.162 604.025C526.705 582.18 508.122 560.441 489.414 538.81C495.357 539.731 514.127 539.546 520.624 539.423C540.576 539.045 565.282 541.009 584.542 536.205Z"/><path fill="#104F91" transform="scale(0.5 0.5)" d="M564.197 626.156L564.66 625.915C565.774 626.424 568.329 627.387 569.415 626.575C579.158 619.299 589.299 612.537 598.798 604.93C605.963 599.192 613.48 593.902 619.877 587.277C621.411 585.688 622.252 583.141 622.909 581.07L622.398 580.146L622.7 579.263C628.077 585.353 673.682 637.12 674.039 639.243C672.204 640.873 667.247 640.553 664.739 640.46C637.386 639.447 608.166 641.737 580.978 640.269C579.377 640.17 577.778 640.035 576.182 639.865C572.184 636.226 567.315 630.612 564.197 626.156Z"/><path fill="#444345" transform="scale(0.5 0.5)" d="M342.606 677.236C347.798 676.773 373.013 676.815 377.427 677.778C380.309 678.398 383.018 679.646 385.362 681.433C389.258 684.448 391.605 688.86 392.074 693.692C392.925 702.458 391.663 705.796 386.525 712.318C375.999 720.697 355.69 718.078 342.466 718.029L342.606 677.236ZM352.678 708.436C361.047 708.408 372.835 709.817 379.174 705.089C382.045 701.717 382.499 699.45 382.104 694.974C381.105 683.658 360.811 686.823 352.536 686.952C352.542 694.037 352.456 701.377 352.678 708.436Z"/><path fill="#444345" transform="scale(0.5 0.5)" d="M448.579 677.048C457.871 677.19 483.11 675.396 490.243 678.655C493.401 680.098 495.97 682.63 497.098 685.949C498.489 690.043 498.422 694.705 496.367 698.524C494.057 702.816 490.904 704.395 486.447 705.816C490.241 709.622 494.986 714.664 499.092 717.942C494.141 717.967 489.191 717.955 484.24 717.906C479.499 713.692 474.39 707.888 470.022 703.165L464.353 696.835C468.863 696.986 481.564 698.213 486.118 695.345C489.522 693.202 487.548 687.595 484.561 687.115C477.1 685.916 465.748 686.689 458.168 686.875L458.472 718.089L448.548 718.068C448.288 704.697 448.594 690.518 448.579 677.048Z"/><path fill="#444345" transform="scale(0.5 0.5)" d="M687.032 677.169C697.22 677.01 707.382 677.084 717.606 677.015C724.184 676.971 731.611 677.888 735.066 684.447C737.551 689.165 737.43 696.158 733.74 700.25C731.294 702.961 728.922 704.066 725.709 705.657C729.871 710.27 733.949 713.973 738.6 717.999C733.593 717.984 728.377 718.08 723.409 717.616C719.533 714.236 713.138 707.157 709.457 703.278L703.463 697.059C709.425 697.12 723.947 698.886 726.767 693.158C727.002 690.741 726.262 689.52 724.767 687.698C720.714 685.636 702.795 686.749 697.018 686.913C696.922 697.147 697.13 707.744 697.105 718.054L686.84 718.018C687.118 704.434 686.712 690.774 687.032 677.169Z"/><path fill="#444345" transform="scale(0.5 0.5)" d="M282.067 677.105C293.951 677.045 309.624 676.228 321.288 677.974C329.92 679.266 333.99 689.758 330.359 697.284C327.883 702.416 325.841 703.393 320.634 705.7C324.504 709.643 328.641 713.685 332.144 717.931C327.506 717.991 322.867 717.973 318.229 717.877C313.507 712.622 308.664 707.477 303.705 702.445C302.226 700.652 300.692 698.867 299.191 697.089C303.39 697.155 318.581 698.348 320.571 694.953C327.778 682.654 297.637 686.629 291.922 687.006C291.752 697.357 291.742 707.711 291.891 718.063L281.95 717.966L282.067 677.105Z"/><path fill="#444345" transform="scale(0.5 0.5)" d="M623.687 677.044L633.447 677.064L633.486 693.361C638.407 693.312 643.327 693.21 648.246 693.055C652.907 689.158 659.86 681.969 664.386 677.572C669.107 677.057 674.693 677.17 679.504 677.137C671.555 684.43 665.195 690.317 657.744 698.145C660.869 701.283 664.482 704.408 667.796 707.384C671.919 710.822 675.532 714.496 679.952 718.076L665.416 717.951C660.79 714.747 652.638 706.752 647.794 702.64C643.293 702.483 638.185 702.584 633.635 702.566C633.72 707.605 633.623 713.004 633.613 718.068L623.571 718.086C623.331 704.902 623.492 690.221 623.687 677.044Z"/><path fill="#444345" transform="scale(0.5 0.5)" d="M584.962 677.215L617.918 677.105C610.353 693.186 597.238 684.879 581.85 687.312L581.145 687.429C580.466 687.936 579.811 688.474 579.183 689.042C569.009 698.112 577.759 710.726 590.153 708.57C592.599 708.144 600.309 708.445 603.25 708.395L618.478 708.299C616.131 713.131 614.824 714.948 610.361 717.878C604.49 718.261 585.898 718.721 580.822 717.643C558.628 712.93 559.623 679.098 584.962 677.215Z"/><path fill="#444345" transform="scale(0.5 0.5)" d="M528.081 677.58C531.211 677.341 536.285 676.43 538.363 679.334C541.49 683.703 544.221 688.45 547.021 693.049L562.352 718.034C558.42 718.056 554.354 717.945 550.411 717.889C548.756 715.532 546.93 712.472 545.36 709.994C538.177 710.721 532.596 710.715 525.347 710.083C527.356 706.3 528.224 705.013 530.809 701.511C533.803 701.393 537.042 701.357 539.978 700.871C537.836 696.537 535.689 692.122 532.644 688.354C526.343 698.225 520.904 707.928 514.903 717.892C511.062 718.046 506.531 717.918 502.639 717.905C504.964 713.758 510.309 705.798 513.109 701.372C517.018 695.194 523.969 682.432 528.081 677.58Z"/><path fill="#444345" transform="scale(0.5 0.5)" d="M395.005 677.235C411.193 676.924 427.677 677.342 443.926 677.139C439.479 689.177 435.134 686.972 423.477 686.897L423.445 698.875C423.546 705.269 423.582 711.664 423.551 718.059L413.912 718.04L414.017 686.996C408.631 686.804 399.81 688.473 396.055 683.472C394.943 681.991 393.651 679.611 393.898 677.717L395.005 677.235Z"/></svg>