<?xml version="1.0" encoding="utf-8" ?><svg xmlns="http://www.w3.org/2000/svg" xmlns:xlink="http://www.w3.org/1999/xlink" width="502" height="375" viewBox="0 0 502 375"><defs><linearGradient id="gradient_0" gradientUnits="userSpaceOnUse" x1="80.050995" y1="69.087311" x2="142.92072" y2="28.418491"><stop offset="0" stop-color="#1C2777"/><stop offset="1" stop-color="#16A2DD"/></linearGradient></defs><path fill="url(#gradient_0)" transform="scale(2.60146 2.60146)" d="M42.5764 11.528C51.9203 11.4876 61.2643 11.4952 70.608 11.551C89.631 11.3271 108.958 11.4882 127.993 11.803C129.336 11.8252 131.841 12.5122 133.319 12.7598C138.62 14.5503 142.79 16.1437 147.549 19.2209C162.405 28.8261 171.27 49.0674 166.102 66.4317C162.516 80.9525 150.474 93.8166 136.096 97.9242C135.638 98.055 132.528 98.9087 132.312 99.0344C130.933 99.7671 129.018 99.6776 127.488 100.054C126.15 95.5934 132.957 83.5603 131.408 80.9241C131.136 78.1271 130.712 73.2471 129.184 70.8661C130.925 70.0657 132.522 68.9825 133.909 67.6604C137.017 64.7389 138.819 60.689 138.908 56.4239C139.051 49.2333 134.728 42.4128 127.424 40.6726C123.633 39.7694 118.916 40.0093 114.996 40.0187C109.842 40.0179 104.688 40.0688 99.5355 40.1714C88.8109 40.3446 76.8632 40.403 66.1432 40.1793C58.6138 40.3821 50.1928 40.2826 42.6269 40.203C42.4128 37.4955 42.5194 33.3929 42.5196 30.6106L42.5764 11.528Z"/><path fill="#18AAD9" transform="scale(2.60146 2.60146)" d="M133.319 12.7598C138.62 14.5503 142.79 16.1437 147.549 19.2209C162.405 28.8261 171.27 49.0674 166.102 66.4317L165.376 66.8438C165.308 66.0378 165.204 64.2164 164.804 63.6042C161.356 58.3325 157.667 53.2931 154.026 48.1587C153.39 47.1541 153.105 43.0808 151.84 42.6479C137.131 37.6144 135.571 30.5022 130.912 15.8623C131.594 14.8127 132.417 13.6198 133.319 12.7598Z"/><path fill="#13284A" transform="scale(2.60146 2.60146)" d="M42.5764 11.528C51.9203 11.4876 61.2643 11.4952 70.608 11.551C68.8494 11.6273 66.4978 11.6491 64.8038 11.8066C64.9888 13.2316 65.6091 16.8959 65.4257 18.0765L65.2934 18.0818C65.2015 16.8569 65.1694 15.545 64.7261 14.4052C64.3699 14.9947 65.0149 14.8649 64.4279 16.4474C65.2509 18.2462 63.905 18.0667 63.7828 18.7008C63.0547 22.4807 64.163 37.0051 60.8821 39.0035C61.3911 40.4832 64.6627 39.7068 66.1432 40.1793C58.6138 40.3821 50.1928 40.2826 42.6269 40.203C42.4128 37.4955 42.5194 33.3929 42.5196 30.6106L42.5764 11.528Z"/><defs><linearGradient id="gradient_1" gradientUnits="userSpaceOnUse" x1="39.300526" y1="77.48465" x2="70.480125" y2="100.39936"><stop offset="0" stop-color="#111B30"/><stop offset="1" stop-color="#184A84"/></linearGradient></defs><path fill="url(#gradient_1)" transform="scale(2.60146 2.60146)" d="M42.988 138.842C42.5681 137.929 42.6149 133.109 42.5928 131.752C42.5423 126.192 42.523 120.632 42.535 115.072L42.5637 88.353C42.5859 84.7959 42.166 74.1291 43.6884 70.9508C44.1892 69.9054 49.6051 64.7374 50.7005 63.6171C55.03 59.1063 59.3898 54.6247 63.7797 50.1727C65.87 48.042 69.0818 45.0335 70.5824 42.613C70.8871 48.1146 70.7235 55.0706 70.7287 60.6956L70.7632 94.0234C71.0376 108.963 70.5529 124.242 70.852 139.041C67.4085 138.594 60.2038 138.823 56.5516 138.86C52.3097 138.904 47.1084 138.661 42.988 138.842Z"/><path fill="#198BD7" transform="scale(2.60146 2.60146)" d="M42.988 138.842C43.2431 138.286 43.517 137.976 43.8944 137.509C45.544 135.47 46.8948 133.124 48.244 130.888C52.4631 123.947 56.6197 116.969 60.7132 109.954C62.1784 107.416 68.9335 94.9462 70.7632 94.0234C71.0376 108.963 70.5529 124.242 70.852 139.041C67.4085 138.594 60.2038 138.823 56.5516 138.86C52.3097 138.904 47.1084 138.661 42.988 138.842Z"/><path fill="#13284A" transform="scale(2.60146 2.60146)" d="M127.488 100.054C129.018 99.6776 130.933 99.7671 132.312 99.0344C134.159 100.559 140.958 108 142.332 110.064C147.988 116.286 153.167 122.456 158.603 128.85C161.041 131.718 164.916 136.386 167.456 138.922L143.968 138.935C139.289 138.935 134.425 139.04 129.774 138.661C126.635 136.018 121.431 129.487 118.567 126.065C116.809 124.302 112.966 119.537 111.161 117.399L97.2264 100.978C97.2494 100.969 97.2722 100.959 97.2953 100.951C100.796 99.6626 120.119 100.782 126.149 100.076L127.488 100.054Z"/><defs><linearGradient id="gradient_2" gradientUnits="userSpaceOnUse" x1="135.22202" y1="123.5729" x2="155.79523" y2="147.13036"><stop offset="0" stop-color="#113567"/><stop offset="1" stop-color="#1174D3"/></linearGradient></defs><path fill="url(#gradient_2)" transform="scale(2.60146 2.60146)" d="M142.332 110.064C147.988 116.286 153.167 122.456 158.603 128.85C161.041 131.718 164.916 136.386 167.456 138.922L143.968 138.935C139.289 138.935 134.425 139.04 129.774 138.661C126.635 136.018 121.431 129.487 118.567 126.065L119.036 125.958C120.516 127.432 123.852 131.838 124.818 132.551C128.202 131.877 136.671 123.345 139.985 120.934C141.568 119.783 145.531 117.036 146.94 115.815C145.634 114.595 142.822 111.741 142.332 110.064Z"/><defs><linearGradient id="gradient_3" gradientUnits="userSpaceOnUse" x1="74.808762" y1="72.589622" x2="128.45595" y2="90.784363"><stop offset="0" stop-color="#1A2D59"/><stop offset="1" stop-color="#1C54AE"/></linearGradient></defs><path fill="url(#gradient_3)" transform="scale(2.60146 2.60146)" d="M72.1102 72.1815C74.6479 72.3881 78.3676 72.2587 80.9951 72.2546L96.7562 72.2463L112.1 72.2677C117.491 72.3017 124.11 72.7504 129.184 70.8661C130.712 73.2471 131.136 78.1271 131.408 80.9241C132.957 83.5603 126.15 95.5934 127.488 100.054L126.149 100.076C120.119 100.782 100.796 99.6626 97.2953 100.951C97.2722 100.959 97.2494 100.969 97.2264 100.978C91.4336 94.856 85.7754 87.3111 80.1558 80.9639C77.7617 78.2598 74.8451 74.3427 72.1102 72.1815Z"/><path fill="#2C61B4" transform="scale(2.60146 2.60146)" d="M131.408 80.9241C132.957 83.5603 126.15 95.5934 127.488 100.054L126.149 100.076C126.093 97.6506 129.052 90.1483 129.777 87.2453C130.144 85.7794 130.983 82.3693 131.408 80.9241Z"/></svg>